<svg id="Capa_1" enable-background="new 0 0 512 512" height="512" viewBox="0 0 512 512" width="512" xmlns="http://www.w3.org/2000/svg"><g><path d="m455.596 105.651h-285.082c-4.362 0-7.946 3.444-8.12 7.802l-15.604 390.095 324.41.952 7.808-8.754-15.292-382.293c-.174-4.359-3.758-7.802-8.12-7.802z" fill="#ffe07d"/><path d="m163.369 495.746c-4.616 0-8.305-3.84-8.121-8.452l15.265-381.643h-8.126c-4.362 0-7.946 3.443-8.121 7.802l-15.604 390.095c-.185 4.612 3.504 8.452 8.12 8.452h324.418c4.616 0 8.305-3.84 8.12-8.452l-.312-7.802z" fill="#ffd064"/><path d="m170.833 260.238 19.868-23.926c11.174-13.457 26.943-22.096 44.058-24.394 4.872-.654 9.217 3.205 9.217 8.121v31.898c0 17.954-14.554 32.508-32.508 32.508l-48.762 16.254z" fill="#e5646e"/><path d="m138.325 260.238-19.868-23.926c-11.174-13.457-26.943-22.096-44.058-24.394-4.872-.654-9.217 3.205-9.217 8.121v31.898c0 17.954 14.554 32.508 32.508 32.508l48.762 16.254z" fill="#e5646e"/><path d="m154.579 292.571c-1.389 0-2.786-.357-4.032-1.071l-56.889-32.508c-3.897-2.23-5.254-7.19-3.024-11.087 2.222-3.897 7.183-5.278 11.087-3.024l52.857 30.206 52.857-30.206c3.889-2.254 8.857-.873 11.087 3.024s.873 8.857-3.024 11.087l-56.888 32.508c-1.246.714-2.643 1.071-4.031 1.071z" fill="#db4655"/><path d="m162.706 252.111h-16.254c-4.489 0-8.127 3.638-8.127 8.127v40.461h32.508v-40.461c0-4.489-3.639-8.127-8.127-8.127z" fill="#ff8086"/><path d="m57 339v156.746l8.182 16.254h178.794c8.977 0 16.254-7.277 16.254-16.254v-146.286z" fill="#ff8086"/><path d="m97.69 349.46h162.54v-32.508h-211.302v178.794c0 8.977 7.277 16.254 16.254 16.254v-130.032c0-17.953 14.554-32.508 32.508-32.508z" fill="#e5646e"/><path d="m308.991 0c-40.333 0-73.143 32.81-73.143 73.143v65.016h16.254v-65.016c0-31.365 25.524-56.889 56.889-56.889s56.889 25.524 56.889 56.889v65.016h16.254v-65.016c0-40.333-32.809-73.143-73.143-73.143z" fill="#ff8086"/><path d="m260.229 146.286h-32.508c-4.492 0-8.127-3.635-8.127-8.127s3.635-8.127 8.127-8.127h32.508c4.492 0 8.127 3.635 8.127 8.127s-3.635 8.127-8.127 8.127z" fill="#ffc269"/><path d="m390.261 146.286h-32.508c-4.492 0-8.127-3.635-8.127-8.127s3.635-8.127 8.127-8.127h32.508c4.492 0 8.127 3.635 8.127 8.127s-3.635 8.127-8.127 8.127z" fill="#ffc269"/><path d="m268.356 284.444h-219.428c-4.488 0-8.127 3.639-8.127 8.127v24.381c0 4.488 3.639 8.127 8.127 8.127h219.429c4.488 0 8.127-3.639 8.127-8.127v-24.381c-.001-4.488-3.639-8.127-8.128-8.127z" fill="#d6bdef"/><path d="m65.182 316.952c-8.977 0-16.254-7.277-16.254-16.254v-16.254h-8.127c-4.488 0-8.127 3.639-8.127 8.127v32.508c0 4.488 3.639 8.127 8.127 8.127h227.556c4.488 0 8.127-3.639 8.127-8.127v-8.127z" fill="#c3aff0"/><path d="m138.325 284.444h32.508v227.556h-32.508z" fill="#ffe07d"/></g></svg>